<?xml version="1.0" encoding="UTF-8"?>
<svg width="26px" height="26px" viewBox="0 0 26 26" version="1.1" xmlns="http://www.w3.org/2000/svg" xmlns:xlink="http://www.w3.org/1999/xlink">
    <!-- Generator: Sketch 47.1 (45422) - http://www.bohemiancoding.com/sketch -->
    <title>ExitFull_HoverClick</title>
    <desc>Created with Sketch.</desc>
    <defs></defs>
    <g id="Page-1" stroke="none" stroke-width="1" fill="none" fill-rule="evenodd">
        <g id="ExitFull_HoverClick" stroke="#FFFFFF">
            <g id="Group-9">
                <circle id="Oval-10" stroke-opacity="0.65" stroke-width="2" cx="13" cy="13" r="12"></circle>
                <g id="Group-8" transform="translate(7.000000, 7.000000)" stroke-linecap="round" stroke-linejoin="round">
                    <polyline id="Path-5" stroke-opacity="0.65" points="0 6 0 0 6 0"></polyline>
                    <polyline id="Path-5" stroke-opacity="0.65" transform="translate(9.000000, 9.000000) rotate(-180.000000) translate(-9.000000, -9.000000) " points="6 12 6 6 12 6"></polyline>
                    <g id="Group-7" transform="translate(0.000000, 8.000000)" stroke-width="2">
                        <path d="M0.5,3.5 L4,0" id="Line-4"></path>
                        <polyline id="Path-6" transform="translate(2.500000, 1.500000) rotate(-180.000000) translate(-2.500000, -1.500000) " points="1 0 1 3 4 3"></polyline>
                    </g>
                    <g id="Group-7" transform="translate(10.000000, 2.500000) rotate(-180.000000) translate(-10.000000, -2.500000) translate(8.000000, 0.000000)" stroke-width="2">
                        <path d="M0.5,4.5 L4,1" id="Line-4"></path>
                        <polyline id="Path-6" transform="translate(2.500000, 2.500000) rotate(-180.000000) translate(-2.500000, -2.500000) " points="1 1 1 4 4 4"></polyline>
                    </g>
                </g>
            </g>
        </g>
    </g>
</svg>