<?xml version="1.0" encoding="UTF-8"?>
<svg width="36px" height="36px" viewBox="0 0 36 36" version="1.1" xmlns="http://www.w3.org/2000/svg" xmlns:xlink="http://www.w3.org/1999/xlink">
    <!-- Generator: Sketch 47.1 (45422) - http://www.bohemiancoding.com/sketch -->
    <title>Freeze_Hover</title>
    <desc>Created with Sketch.</desc>
    <defs></defs>
    <g id="Page-1" stroke="none" stroke-width="1" fill="none" fill-rule="evenodd">
        <g id="Freeze_Hover" stroke="#FFFFFF">
            <g id="Group-11">
                <circle id="Oval-2" stroke-opacity="0.25" stroke-width="2" cx="18" cy="18" r="17"></circle>
                <g id="Group" transform="translate(7.000000, 5.000000)" stroke-width="1.83333333" stroke-linecap="round" stroke-linejoin="round">
                    <path d="M11,20.4285714 L11,5.57142857" id="Line"></path>
                    <path d="M4.58333333,9.28571429 L17.4166667,16.7142857" id="Line"></path>
                    <path d="M4.58333333,16.7142857 L17.4166667,9.28571429" id="Line"></path>
                    <polyline id="Path-3" transform="translate(11.000000, 22.750000) scale(1, -1) rotate(-45.000000) translate(-11.000000, -22.750000) " points="9.16666667 20.8928571 9.16666667 24.6071429 12.8333333 24.6071429"></polyline>
                    <polyline id="Path-3" transform="translate(11.000000, 3.250000) scale(-1, 1) rotate(-45.000000) translate(-11.000000, -3.250000) " points="9.16666667 1.39285714 9.16666667 5.10714286 12.8333333 5.10714286"></polyline>
                    <polyline id="Path-3" transform="translate(19.662032, 7.845955) scale(-1, 1) rotate(-105.000000) translate(-19.662032, -7.845955) " points="17.8286989 5.9888119 17.8286989 9.70309762 21.4953656 9.70309762"></polyline>
                    <polyline id="Path-3" transform="translate(2.245366, 7.845955) rotate(-105.000000) translate(-2.245366, -7.845955) " points="0.412032264 5.9888119 0.412032264 9.70309762 4.07869893 9.70309762"></polyline>
                    <polyline id="Path-3" transform="translate(19.662032, 18.060240) scale(-1, -1) rotate(-105.000000) translate(-19.662032, -18.060240) " points="17.8286989 16.2030976 17.8286989 19.9173833 21.4953656 19.9173833"></polyline>
                    <polyline id="Path-3" transform="translate(2.245366, 18.060240) scale(1, -1) rotate(-105.000000) translate(-2.245366, -18.060240) " points="0.412032264 16.2030976 0.412032264 19.9173833 4.07869893 19.9173833"></polyline>
                </g>
            </g>
        </g>
    </g>
</svg>